<?xml version="1.0" encoding="UTF-8"?>
<svg id="Capa_1" data-name="Capa 1" xmlns="http://www.w3.org/2000/svg" viewBox="0 0 446.73 418.36">
  <defs>
    <style>
      .cls-1 {
        fill: #1f1713;
      }
    </style>
  </defs>
  <g>
    <path class="cls-1" d="m70.13,374.31h-20.12v-42.79h-29.81v42.79H0v-100.01h20.19v40.46h29.81v-40.46h20.12v100.01Z"/>
    <path class="cls-1" d="m83.11,334.75c0-11.26,2.66-20.1,7.97-26.51,5.31-6.41,12.66-9.62,22.05-9.62s16.87,3.2,22.19,9.62c5.31,6.41,7.97,15.3,7.97,26.65v4.74c0,11.31-2.63,20.15-7.9,26.51-5.27,6.37-12.64,9.55-22.12,9.55s-16.93-3.19-22.22-9.58-7.93-15.26-7.93-26.62v-4.74Zm19.51,4.88c0,13.28,3.55,19.92,10.65,19.92,6.55,0,10.07-5.54,10.58-16.62l.07-8.17c0-6.78-.94-11.8-2.82-15.08-1.88-3.27-4.53-4.91-7.97-4.91s-5.87,1.64-7.73,4.91-2.78,8.3-2.78,15.08v4.88Z"/>
    <path class="cls-1" d="m177.96,281.72v18.27h9.96v14.56h-9.96v36.94c0,2.94.4,4.95,1.2,6.05s2.35,1.65,4.64,1.65c1.88,0,3.41-.16,4.6-.48l-.14,15.11c-3.3,1.24-6.87,1.85-10.72,1.85-12.55,0-18.89-7.2-19.03-21.59v-39.54h-8.59v-14.56h8.59v-18.27h19.44Z"/>
    <path class="cls-1" d="m199.53,374.31v-100.01h30.91c10.44,0,18.37,2.32,23.8,6.97,5.43,4.65,8.14,11.46,8.14,20.43,0,5.08-1.12,9.46-3.37,13.12-2.24,3.66-5.31,6.34-9.2,8.04,4.49,1.28,7.94,3.86,10.37,7.73,2.43,3.87,3.64,8.64,3.64,14.32,0,9.71-2.67,17.03-8,21.98-5.34,4.95-13.06,7.42-23.18,7.42h-33.11Zm20.19-58.18h10.51c7.92,0,11.88-4.1,11.88-12.3,0-4.53-.92-7.78-2.75-9.75-1.83-1.97-4.81-2.95-8.93-2.95h-10.72v25Zm0,14.7v26.72h12.91c3.62,0,6.36-1.12,8.24-3.37,1.88-2.24,2.82-5.43,2.82-9.55,0-8.97-3.25-13.58-9.75-13.81h-14.22Z"/>
    <path class="cls-1" d="m275.22,334.75c0-11.26,2.66-20.1,7.97-26.51,5.31-6.41,12.66-9.62,22.05-9.62s16.87,3.2,22.19,9.62c5.31,6.41,7.97,15.3,7.97,26.65v4.74c0,11.31-2.63,20.15-7.9,26.51-5.27,6.37-12.64,9.55-22.12,9.55s-16.93-3.19-22.22-9.58-7.93-15.26-7.93-26.62v-4.74Zm19.51,4.88c0,13.28,3.55,19.92,10.65,19.92,6.55,0,10.07-5.54,10.58-16.62l.07-8.17c0-6.78-.94-11.8-2.82-15.08-1.88-3.27-4.53-4.91-7.97-4.91s-5.87,1.64-7.73,4.91c-1.85,3.27-2.78,8.3-2.78,15.08v4.88Z"/>
    <path class="cls-1" d="m382.79,374.31c-.55-1.14-1.1-3.07-1.65-5.77-3.48,4.76-8.2,7.14-14.15,7.14s-11.39-2.06-15.49-6.18c-4.1-4.12-6.15-9.45-6.15-16,0-7.78,2.48-13.81,7.45-18.06s12.12-6.43,21.46-6.52h5.91v-5.98c0-3.34-.57-5.7-1.72-7.07-1.14-1.37-2.82-2.06-5.01-2.06-4.85,0-7.28,2.84-7.28,8.52h-19.44c0-6.87,2.57-12.54,7.73-17,5.15-4.46,11.66-6.7,19.54-6.7s14.46,2.12,18.92,6.35c4.46,4.24,6.7,10.29,6.7,18.17v34.96c.09,6.41,1.01,11.43,2.75,15.04v1.17h-19.57Zm-11.47-13.87c2.15,0,3.98-.44,5.5-1.31,1.51-.87,2.63-1.9,3.37-3.09v-15.45h-4.67c-3.3,0-5.9,1.06-7.8,3.16-1.9,2.11-2.85,4.92-2.85,8.45,0,5.5,2.15,8.24,6.46,8.24Z"/>
    <path class="cls-1" d="m436.29,281.72v18.27h9.96v14.56h-9.96v36.94c0,2.94.4,4.95,1.2,6.05.8,1.1,2.35,1.65,4.64,1.65,1.88,0,3.41-.16,4.6-.48l-.14,15.11c-3.3,1.24-6.87,1.85-10.72,1.85-12.55,0-18.89-7.2-19.03-21.59v-39.54h-8.59v-14.56h8.59v-18.27h19.44Z"/>
  </g>
  <g>
    <path class="cls-1" d="m207.85,413.67c-.18,1.5-.73,2.66-1.66,3.47s-2.17,1.22-3.72,1.22c-1.68,0-3.02-.6-4.03-1.8s-1.51-2.81-1.51-4.82v-1.36c0-1.32.24-2.48.71-3.48s1.14-1.77,2-2.3,1.86-.8,3-.8c1.51,0,2.71.42,3.62,1.26s1.44,2,1.59,3.49h-1.88c-.16-1.13-.51-1.95-1.06-2.46s-1.3-.76-2.27-.76c-1.19,0-2.13.44-2.81,1.33-.68.88-1.02,2.14-1.02,3.77v1.37c0,1.54.32,2.77.96,3.68.64.91,1.54,1.37,2.7,1.37,1.04,0,1.84-.24,2.39-.71s.92-1.29,1.11-2.46h1.88Z"/>
    <path class="cls-1" d="m221.31,418.17h-1.88v-6.56h-7.15v6.56h-1.87v-14.18h1.87v6.1h7.15v-6.1h1.88v14.18Z"/>
    <path class="cls-1" d="m226.63,418.17h-1.87v-14.18h1.87v14.18Z"/>
    <path class="cls-1" d="m231.93,416.64h6.72v1.53h-8.6v-14.18h1.88v12.65Z"/>
    <path class="cls-1" d="m248.8,411.61h-6.15v5.03h7.14v1.53h-9.01v-14.18h8.91v1.53h-7.04v4.57h6.15v1.53Z"/>
  </g>
  <g>
    <polygon class="cls-1" points="369.95 154.77 229.77 215.95 298.22 245.82 321.49 245.82 369.95 154.77"/>
    <polygon class="cls-1" points="75.78 154.77 215.96 215.95 147.51 245.82 124.24 245.82 75.78 154.77"/>
    <polygon class="cls-1" points="220.68 245.82 220.68 219.92 161.33 245.82 220.68 245.82"/>
    <polygon class="cls-1" points="225.87 245.82 225.87 219.92 285.22 245.82 225.87 245.82"/>
    <polygon class="cls-1" points="225.87 155.9 225.87 211.99 257.9 198.01 225.87 155.9"/>
    <polygon class="cls-1" points="220.27 155.9 220.27 211.99 188.24 198.01 220.27 155.9"/>
    <polygon class="cls-1" points="99.05 158.75 193.82 181.95 183.22 195.63 99.05 158.75"/>
    <g>
      <path class="cls-1" d="m257.12,128.16c3.66-5.3,5.66-8.01,6.85-9.62,1.51-2.04,1.82-2.47,2.85-4.49,1.83-3.6,2.85-7.94-1.27-13.74.37,3.84,0,9.08-2.78,15.24-2.09,4.62-4.76,8.47-7.11,11.86-2.4,3.46-4.48,6.45-4.95,8.94-.46,2.42-.47,5.31,3.24,9.8-1.2-4.86-1.34-11.45,3.18-18Z"/>
      <path class="cls-1" d="m233.05,110.58c-.59-3.13-3.16-6.82-6.13-11.11-2.88-4.15-6.14-8.85-8.68-14.47-3.32-7.34-3.82-13.59-3.41-18.22-4.87,6.9-3.67,12.05-1.5,16.32,1.25,2.44,1.63,2.96,3.46,5.44,1.46,1.98,3.91,5.3,8.4,11.81,5.38,7.8,5.46,15.64,4.16,21.6.67-.7,1.26-1.37,1.8-2.01,2.47-4.01,2.37-6.88,1.9-9.35Z"/>
      <path class="cls-1" d="m195.31,136.36c-.47-2.49-2.55-5.48-4.95-8.94-2.36-3.4-5.03-7.24-7.11-11.86-2.78-6.17-3.16-11.4-2.78-15.25-4.12,5.79-3.11,10.14-1.27,13.74,1.03,2.02,1.34,2.44,2.85,4.49,1.19,1.62,3.19,4.32,6.85,9.62,4.52,6.56,4.38,13.15,3.18,18,3.71-4.5,3.7-7.39,3.24-9.8Z"/>
    </g>
    <path class="cls-1" d="m261.91,157.88l-2.07-1.64c-1.86-1.47-3.44-2.84-4.83-4.14-9.53-8.1-10.94-13.31-9.96-18.48.6-3.18,2.87-6.44,5.49-10.22,2.28-3.28,4.86-6.99,6.82-11.33,5.14-11.37,1.12-19.1,1.08-19.18l-3.98-7.43,6.51,5.36c.89.74,1.71,1.46,2.48,2.17,13.42,11.11,11.42,19.39,8.73,24.65-1.16,2.27-1.62,2.89-3.14,4.96-1.18,1.6-3.16,4.28-6.78,9.54-6.58,9.54-1.71,19-.33,21.31v-5.65h13.52v23.43l95.52-23.59L223.27,0,75.78,147.49l121.73,29.7,25.78-33.25,25.74,33.84,12.87-3.18v-16.72Zm-70.91-5.78c-1.39,1.3-2.97,2.67-4.83,4.14l-8.68,6.85,6.28-9.1h0c.31-.45,7.41-11.09,0-21.83-3.63-5.26-5.61-7.94-6.79-9.54-1.53-2.07-1.99-2.69-3.14-4.96-2.68-5.27-4.68-13.54,8.73-24.65.76-.71,1.58-1.44,2.48-2.18l6.51-5.36-3.98,7.43c-.16.31-4.02,7.9,1.08,19.18,1.96,4.34,4.54,8.05,6.81,11.33,2.62,3.77,4.88,7.03,5.49,10.22.98,5.17-.43,10.37-9.95,18.47Zm33.68-19.34l-13.02,10.28,1.14-1.65-.13.1,6.17-9.02c.38-.56,9.23-13.79,0-27.18-4.45-6.45-6.87-9.74-8.32-11.7-1.9-2.58-2.41-3.27-3.82-6.02-4.78-9.38-1.58-17.02,3.74-23.18,2.08-3.06,5.1-6.36,9.37-9.87l9.76-8.04-5.98,11.14c-.19.37-4.8,9.5,1.34,23.1,2.38,5.27,5.53,9.81,8.31,13.8,3.24,4.67,6.04,8.7,6.8,12.69,1.33,7-.78,14.03-15.37,25.55Z"/>
    <g>
      <polygon class="cls-1" points="275.52 176.31 275.52 190.18 347.24 158.75 275.52 176.31"/>
      <polygon class="cls-1" points="262 179.62 252.48 181.95 262 194.24 262 179.62"/>
    </g>
  </g>
</svg>